<svg width="659" height="494" viewBox="0 0 659 494" fill="none" xmlns="http://www.w3.org/2000/svg">
<path d="M329.418 471.424C225.763 471.424 141.734 422.088 141.734 361.229C141.734 300.37 225.763 251.034 329.418 251.034C433.072 251.034 517.101 300.37 517.101 361.229C517.101 422.088 433.072 471.424 329.418 471.424Z" fill="white" fill-opacity="0.87"/>
<path d="M491.564 407.352L382.829 345.224L340.242 331.507L323.025 325.381L306.023 327.506L461.761 422.666C461.761 422.666 469.34 418.253 491.564 407.352Z" fill="url(#paint0_linear)"/>
<path d="M437.856 451.187L307.341 376.56L270.19 393.026L252.974 386.901L235.972 389.025L370.309 468.855C370.309 468.855 415.615 462.038 437.856 451.187Z" fill="url(#paint1_linear)"/>
<path d="M309.862 52.7921L298.873 57.6498L309.434 62.2934L311.971 56.8265" fill="#EF7F6C"/>
<path d="M409.98 375.44L318.692 322.269C315.03 320.134 311.989 317.08 309.87 313.409C307.752 309.738 306.63 305.578 306.616 301.34L303.667 59.8234C303.667 53.4837 313.552 50.2563 318.973 53.4837L413.407 109.174C415.751 110.557 417.693 112.527 419.042 114.889C420.391 117.251 421.101 119.924 421.101 122.644V369.067C421.098 370.366 420.753 371.642 420.1 372.765C419.448 373.888 418.51 374.819 417.383 375.465C416.256 376.112 414.978 376.449 413.678 376.445C412.379 376.44 411.103 376.094 409.98 375.44Z" fill="#CAD8DC"/>
<path d="M417.295 375.522L405.351 381.829L406.735 373.513L415.022 372.015" fill="#EF7F6C"/>
<path d="M398.53 381.5L307.242 328.329C303.564 326.189 300.512 323.123 298.39 319.436C296.268 315.749 295.151 311.571 295.15 307.317V63.4955C295.147 62.3547 295.447 61.2337 296.019 60.2465C296.591 59.2594 297.414 58.4413 298.406 57.8757C299.397 57.3101 300.52 57.0171 301.662 57.0266C302.803 57.0361 303.921 57.3477 304.903 57.9297L401.99 115.267C404.333 116.65 406.275 118.619 407.625 120.981C408.974 123.344 409.684 126.016 409.684 128.736V375.111C409.687 376.416 409.345 377.699 408.692 378.829C408.039 379.959 407.098 380.896 405.965 381.545C404.832 382.194 403.547 382.532 402.241 382.524C400.936 382.516 399.655 382.163 398.53 381.5Z" fill="#F4F4F4"/>
<path d="M403.868 143.573L299.861 83.9635V297.256L403.868 357.36V143.573Z" fill="#68E1FD"/>
<path d="M337.485 337.307C336.655 333.831 338.069 330.514 340.645 329.9C343.22 329.285 345.981 331.605 346.812 335.081C347.642 338.558 346.228 341.874 343.652 342.489C341.077 343.103 338.316 340.783 337.485 337.307Z" fill="#BABABC"/>
<path d="M338.281 94.2223C338.282 94.6303 338.391 95.0309 338.596 95.3836C338.802 95.7363 339.096 96.0286 339.451 96.2312L359.55 107.758C359.903 107.96 360.303 108.065 360.709 108.064C361.116 108.063 361.515 107.956 361.866 107.752C362.218 107.549 362.511 107.257 362.714 106.906C362.918 106.554 363.025 106.155 363.027 105.749V105.255C363.025 104.841 362.913 104.435 362.701 104.079C362.49 103.722 362.187 103.429 361.824 103.23L341.724 92.2133C341.373 92.0197 340.977 91.9206 340.575 91.9256C340.173 91.9306 339.78 92.0397 339.433 92.242C339.086 92.4444 338.798 92.7333 338.596 93.0803C338.394 93.4274 338.285 93.8208 338.281 94.2223Z" fill="#CCCCCC"/>
<path d="M326.91 88.8812C326.316 87.2778 326.789 85.6248 327.967 85.1892C329.145 84.7536 330.58 85.7003 331.174 87.3037C331.768 88.9072 331.295 90.5601 330.117 90.9958C328.939 91.4314 327.504 90.4847 326.91 88.8812Z" fill="#CCCCCC"/>
<path d="M329.17 135.751V149.237C329.169 149.722 329.042 150.197 328.802 150.618C328.561 151.039 328.216 151.39 327.799 151.637C327.383 151.884 326.909 152.019 326.424 152.029C325.94 152.038 325.461 151.922 325.035 151.691L312.564 144.907C312.124 144.665 311.758 144.31 311.503 143.878C311.248 143.446 311.114 142.954 311.114 142.453V128.588C311.116 128.1 311.246 127.62 311.492 127.197C311.737 126.774 312.088 126.423 312.512 126.178C312.935 125.934 313.415 125.804 313.904 125.802C314.392 125.8 314.873 125.926 315.298 126.168L327.852 133.38C328.255 133.631 328.587 133.981 328.818 134.395C329.049 134.81 329.17 135.277 329.17 135.751Z" fill="#EF7F6C"/>
<path d="M391.907 171.649V185.135C391.906 185.619 391.779 186.095 391.539 186.515C391.298 186.936 390.953 187.287 390.536 187.534C390.119 187.782 389.646 187.916 389.161 187.926C388.677 187.935 388.198 187.819 387.772 187.588L375.3 180.738C374.861 180.496 374.495 180.141 374.24 179.71C373.985 179.278 373.85 178.786 373.851 178.285V164.486C373.853 163.997 373.983 163.517 374.228 163.095C374.474 162.672 374.825 162.321 375.248 162.076C375.672 161.831 376.151 161.701 376.64 161.699C377.129 161.697 377.61 161.823 378.035 162.065L390.457 169.228C390.892 169.467 391.255 169.817 391.51 170.242C391.764 170.668 391.902 171.153 391.907 171.649Z" fill="#7EB753"/>
<path d="M359.814 154.293V167.779C359.813 168.263 359.686 168.739 359.445 169.16C359.205 169.58 358.86 169.931 358.443 170.178C358.026 170.426 357.552 170.561 357.068 170.57C356.583 170.58 356.105 170.463 355.679 170.232L343.207 163.382C342.768 163.141 342.402 162.785 342.147 162.354C341.891 161.922 341.757 161.43 341.757 160.929V147.13C341.756 146.636 341.886 146.151 342.133 145.724C342.38 145.296 342.735 144.942 343.163 144.696C343.592 144.45 344.077 144.322 344.571 144.324C345.065 144.327 345.549 144.459 345.975 144.709L358.447 151.872C358.866 152.122 359.212 152.476 359.452 152.901C359.692 153.325 359.817 153.805 359.814 154.293Z" fill="#F2F2F2"/>
<path d="M368.7 314.937C366.44 307.83 368.897 300.706 374.186 299.026C379.476 297.346 385.596 301.745 387.856 308.852C390.115 315.959 387.659 323.083 382.37 324.763C377.08 326.443 370.96 322.044 368.7 314.937Z" fill="#F2F2F2"/>
<path d="M374.153 309.346C373.534 306.502 374.618 303.852 376.574 303.427C378.53 303.002 380.617 304.962 381.236 307.806C381.855 310.65 380.771 313.3 378.815 313.725C376.859 314.15 374.771 312.19 374.153 309.346Z" fill="#C4B7B3"/>
<path d="M384.807 323.471C384.807 323.471 382.632 313.953 377.146 312.801C371.66 311.648 370.309 318.597 370.309 318.597C371.038 320.06 372.057 321.359 373.303 322.418C374.549 323.476 375.996 324.271 377.558 324.756C383.044 326.6 384.807 323.471 384.807 323.471Z" fill="#C4B7B3"/>
<path d="M335.715 296.5C333.268 288.804 335.931 281.089 341.663 279.268C347.395 277.447 354.025 282.211 356.472 289.907C358.92 297.604 356.257 305.319 350.525 307.139C344.793 308.96 338.163 304.197 335.715 296.5Z" fill="#EA7554"/>
<path d="M350.654 286.52C350.308 286.421 347.244 288.348 347.359 288.99C347.474 289.632 349.006 291.806 348.776 292.201C348.545 292.596 345.481 296.482 343.734 296.729C342.562 295.998 341.459 295.16 340.439 294.226C339.874 294.443 339.372 294.8 338.983 295.263C338.594 295.727 338.33 296.283 338.215 296.878C338.215 297.586 341.066 299.973 342.828 300.583C345.118 301.373 352.17 293.551 353.01 291.509C353.85 289.468 350.654 286.52 350.654 286.52Z" fill="white"/>
<path d="M325.628 186.304V199.79C325.627 200.274 325.5 200.75 325.26 201.171C325.019 201.591 324.674 201.942 324.257 202.19C323.841 202.437 323.367 202.572 322.882 202.581C322.398 202.591 321.919 202.474 321.493 202.244L309.022 195.393C308.582 195.152 308.216 194.796 307.961 194.365C307.706 193.933 307.572 193.441 307.572 192.94V179.141C307.574 178.652 307.704 178.173 307.95 177.75C308.195 177.327 308.546 176.976 308.97 176.731C309.393 176.486 309.873 176.357 310.362 176.355C310.851 176.353 311.331 176.479 311.756 176.72L324.228 183.883C324.653 184.129 325.006 184.481 325.252 184.906C325.498 185.331 325.628 185.813 325.628 186.304Z" fill="#7EB753"/>
<path d="M387.294 221.658V235.144C387.293 235.628 387.166 236.104 386.926 236.525C386.685 236.945 386.34 237.296 385.923 237.544C385.506 237.791 385.033 237.926 384.548 237.935C384.064 237.945 383.585 237.828 383.159 237.598L370.687 230.747C370.248 230.506 369.882 230.15 369.627 229.719C369.372 229.287 369.237 228.795 369.238 228.294V214.495C369.24 214.006 369.37 213.527 369.615 213.104C369.861 212.681 370.212 212.33 370.635 212.085C371.059 211.84 371.538 211.711 372.027 211.709C372.516 211.707 372.997 211.833 373.422 212.074L385.894 219.237C386.319 219.483 386.672 219.835 386.918 220.26C387.164 220.685 387.294 221.167 387.294 221.658Z" fill="#EF7F6C"/>
<path d="M354.74 203.479V216.965C354.738 217.449 354.611 217.925 354.371 218.345C354.131 218.766 353.785 219.117 353.369 219.364C352.952 219.612 352.478 219.747 351.994 219.756C351.509 219.765 351.031 219.649 350.605 219.418L338.133 212.568C337.694 212.326 337.327 211.971 337.072 211.54C336.817 211.108 336.683 210.616 336.683 210.115V196.316C336.685 195.827 336.816 195.347 337.061 194.925C337.306 194.502 337.658 194.151 338.081 193.906C338.504 193.661 338.984 193.531 339.473 193.529C339.962 193.527 340.443 193.654 340.868 193.895L353.339 201.058C353.765 201.303 354.118 201.656 354.364 202.081C354.609 202.506 354.739 202.988 354.74 203.479Z" fill="#7EB753"/>
<path d="M324.558 274.186V287.673C324.556 288.157 324.429 288.633 324.189 289.053C323.949 289.474 323.603 289.825 323.186 290.072C322.77 290.319 322.296 290.454 321.812 290.464C321.327 290.473 320.848 290.357 320.422 290.126L308.083 283.227C307.643 282.985 307.277 282.63 307.022 282.198C306.767 281.766 306.632 281.274 306.633 280.773V266.974C306.635 266.485 306.765 266.006 307.01 265.583C307.256 265.16 307.607 264.809 308.031 264.564C308.454 264.32 308.934 264.19 309.423 264.188C309.911 264.186 310.392 264.312 310.817 264.553L323.223 271.7C323.646 271.959 323.992 272.326 324.227 272.763C324.461 273.2 324.575 273.691 324.558 274.186Z" fill="#FFAC99"/>
<path d="M311.141 279.696C309.973 276.98 310.625 274.092 312.597 273.244C314.57 272.396 317.116 273.91 318.285 276.625C319.453 279.34 318.801 282.229 316.828 283.077C314.855 283.925 312.309 282.411 311.141 279.696Z" fill="white"/>
<path d="M217.898 73.0461C216.785 72.4747 215.849 71.6094 215.193 70.544C214.536 69.4787 214.184 68.254 214.175 67.0029V31.7807C214.177 30.5757 214.497 29.3926 215.102 28.3502C215.707 27.3078 216.575 26.4428 217.62 25.8421C218.665 25.2413 219.85 24.9261 221.056 24.928C222.261 24.9298 223.445 25.2487 224.488 25.8527L279.68 58.0285C280.741 58.6466 281.617 59.5378 282.217 60.6094C282.817 61.6809 283.118 62.8937 283.09 64.1212L281.228 108.68L217.898 73.0461Z" fill="#68E1FD"/>
<path d="M281.228 108.68V118.379L268.081 97.318" fill="#68E1FD"/>
<path d="M271.838 71.0537L223.483 43.3403C223.012 43.0651 222.668 42.6139 222.529 42.0858C222.39 41.5578 222.467 40.9961 222.742 40.5245C222.878 40.2909 223.059 40.0865 223.275 39.9229C223.49 39.7592 223.736 39.6396 223.997 39.5708C224.525 39.4318 225.087 39.5083 225.559 39.7835L273.93 67.5133C274.372 67.8039 274.685 68.2533 274.804 68.7683C274.924 69.2834 274.84 69.8246 274.571 70.2798C274.302 70.735 273.868 71.0692 273.359 71.2133C272.85 71.3574 272.305 71.3002 271.838 71.0537Z" fill="white"/>
<path d="M269.432 85.1327L221.078 57.4193C220.606 57.1441 220.263 56.6929 220.124 56.1648C219.985 55.6368 220.061 55.0751 220.337 54.6035C220.612 54.1318 221.063 53.7888 221.592 53.6498C222.12 53.5108 222.682 53.5873 223.154 53.8625L271.524 81.5759C271.996 81.851 272.34 82.3022 272.479 82.8303C272.618 83.3584 272.541 83.92 272.266 84.3917C271.991 84.8633 271.539 85.2064 271.011 85.3453C270.482 85.4843 269.92 85.4078 269.449 85.1327H269.432Z" fill="white"/>
<path d="M242.726 180.063C242.726 180.063 227.059 198.176 226.498 211.251C225.938 224.325 244.473 247.28 244.473 247.28L256.45 228.393C256.45 228.393 240.865 212.288 256.45 199.889C256.45 199.889 261.788 178.976 242.726 180.129" fill="#232626"/>
<path d="M248.674 357.64C248.674 357.64 242.776 365.873 243.27 370.582C243.764 375.292 251.26 383.41 252.974 386.818C254.687 390.227 255.132 391.758 252.974 394.212C250.815 396.666 232.446 380.693 232.017 378.124C231.589 375.555 234.587 365.741 234.587 365.741L226.432 376.049L220.485 372.542L233.088 351.333" fill="#EA7554"/>
<path d="M251.013 394.492C250.519 393.998 235.971 388.959 235.971 388.959C235.971 388.959 229.134 381.846 229.381 379.079C229.629 376.313 232.083 365.593 234.637 365.708C237.191 365.823 237.471 380.067 237.471 380.067L251.013 394.492Z" fill="#15156D"/>
<path d="M268.328 371.192L270.19 392.961C270.19 392.961 274.902 396.402 276.055 396.106C277.208 395.809 280.668 394.904 280.701 394.36C280.734 393.817 279.054 378.98 279.515 378.585C279.976 378.19 287.209 389.914 289.4 390.112C291.591 390.309 308.923 380.314 307.275 376.51C305.628 372.707 297.275 374.699 293.156 374.666C289.037 374.633 283.271 372.278 280.273 365.214" fill="#EA7554"/>
<path d="M279.251 312.224L289.795 368.014C289.795 368.014 283.716 375.967 261.936 374.962L245.741 335.442" fill="#3129A3"/>
<path d="M283.914 224.671C283.914 224.671 300.158 248.367 295.166 286.734C290.734 320.738 256.763 360.834 256.763 360.834C256.763 360.834 246.598 365.313 225.46 345.306L248.773 308.19C248.773 308.19 226.021 255.497 252.875 222.053" fill="#2952A3"/>
<g opacity="0.55">
<path opacity="0.55" d="M345.201 196.513C353.438 195.805 359.106 184.641 357.969 171.105C356.832 157.57 349.418 147.492 341.032 148.2C332.647 148.908 327.128 160.072 328.264 173.608C329.401 187.144 336.897 197.221 345.201 196.513ZM341.494 152.695C347.079 152.218 352.565 160.83 353.455 171.484C354.344 182.138 350.407 191.54 344.805 192.018C339.204 192.495 333.734 183.883 332.844 173.229C331.955 162.575 335.909 153.14 341.494 152.695Z" fill="#F2F2F2"/>
</g>
<path d="M329.714 179.207C329.714 176.16 334.393 176.16 334.459 179.207C334.459 180.853 334.459 182.401 334.459 183.999C334.64 183.653 334.821 183.307 334.986 182.961C336.84 178.551 338.226 173.96 339.121 169.261C339.714 166.215 344.064 167.614 343.685 170.512C343.369 172.817 342.884 175.096 342.235 177.33L342.696 177.132C343.102 176.999 343.53 176.951 343.955 176.991C344.38 177.03 344.792 177.157 345.165 177.362C345.539 177.567 345.867 177.847 346.128 178.184C346.389 178.522 346.578 178.909 346.683 179.322C346.915 180.046 346.955 180.818 346.799 181.561H347.161C347.672 181.735 348.135 182.027 348.512 182.414C348.889 182.8 349.169 183.27 349.33 183.786C349.491 184.301 349.527 184.847 349.436 185.379C349.346 185.911 349.131 186.414 348.809 186.847C349.397 187.312 349.801 187.972 349.945 188.708C350.043 189.549 349.905 190.401 349.547 191.168C349.19 191.935 348.626 192.589 347.919 193.055C346.271 194.405 344.509 196.167 342.976 197.633C341.016 199.543 338.808 201.42 336.963 202.952C335.118 204.483 332.119 199.444 332.021 197.748C331.683 197.856 331.325 197.88 330.977 197.818C330.628 197.756 330.3 197.61 330.021 197.393C329.742 197.175 329.52 196.893 329.374 196.571C329.229 196.248 329.165 195.895 329.187 195.542C329.659 190.119 329.835 184.674 329.714 179.207Z" fill="#FFAC99"/>
<path d="M339.187 184.262C340.286 181.935 341.318 179.564 342.285 177.148C342.482 176.638 343.323 176.868 343.108 177.379C342.142 179.86 341.082 182.297 339.929 184.69C339.698 185.201 338.957 184.756 339.187 184.262Z" fill="#AF594A"/>
<path d="M281.442 172.357C281.442 172.357 289.367 179.487 292.431 184.427C295.496 189.367 307.786 202.935 312.844 198.851C317.902 194.768 326.864 186.979 326.864 186.979C326.864 186.979 339.665 195.772 338.396 204.928C338.396 204.928 327.029 228.146 309.318 223.041C291.607 217.936 287.192 211.234 287.192 211.234L284.523 226.334C284.523 226.334 262.546 233.217 252.348 223.041C252.348 223.041 245.659 179.684 250.585 173.213" fill="#232626"/>
<path d="M283.897 146.092C284.062 146.586 284.441 162.328 279.087 163.827C273.732 165.325 264.638 161.587 262.282 156.598C259.926 151.609 263.287 135.735 271.739 134.813C280.19 133.89 282.382 141.498 283.897 146.092Z" fill="#FFAC99"/>
<path d="M242.446 170.908C243.962 167.45 246.45 165.589 245.856 161.489C245.395 158.343 244.604 155.248 245.708 152.119C246.812 148.99 249.563 147.41 252.166 145.532C252.92 144.979 253.626 144.362 254.275 143.688L254.835 142.75C256.384 140.115 257.504 136.937 259.58 134.664C261.652 132.598 264.32 131.233 267.208 130.762C270.226 130.214 273.323 130.284 276.313 130.966C279.303 131.648 282.124 132.929 284.606 134.73C284.606 134.73 289.202 139.143 287.752 143.869C286.303 148.595 280.569 146.866 277.39 149.007C273.864 151.395 276.105 155.923 277.587 158.887C278.722 161.107 279.288 163.574 279.235 166.066C279.19 168.39 280.005 170.647 281.525 172.406C283.172 174.711 285.083 177.115 285.215 180.079C285.479 185.909 279.301 198.193 261.623 193.632C260.486 193.335 259.3 192.989 258.114 192.594C254.341 191.556 250.801 189.807 247.685 187.44C242.726 183.57 239.843 176.852 242.446 170.908Z" fill="#2952A3"/>
<path d="M281.426 323.718C281.426 323.718 262.826 355.894 256.714 360.801L261.903 374.962C261.903 374.962 283.535 344.664 281.426 323.718Z" fill="#15156D"/>
<path d="M249.168 306.494C255.108 293.96 258.41 280.341 258.872 266.48C258.872 265.377 260.635 265.377 260.519 266.48C260.056 280.636 256.692 294.546 250.634 307.35C250.173 308.355 248.773 307.482 249.168 306.494Z" fill="#15156D"/>
<defs>
<linearGradient id="paint0_linear" x1="388.398" y1="363.106" x2="456.982" y2="403.464" gradientUnits="userSpaceOnUse">
<stop stop-color="#1DAAFF"/>
<stop offset="0.99" stop-color="#79F3DA"/>
</linearGradient>
<linearGradient id="paint1_linear" x1="-50017.2" y1="21417.2" x2="-38867.6" y2="34016.7" gradientUnits="userSpaceOnUse">
<stop stop-color="#1DA9FF"/>
<stop offset="0.208333" stop-color="#9CFDCF"/>
</linearGradient>
</defs>
</svg>
