<svg width="1440" height="124" viewBox="0 0 1440 124" fill="none" xmlns="http://www.w3.org/2000/svg">
<path fill-rule="evenodd" clip-rule="evenodd" d="M-1.42959e-06 16.3526L40 34.2245C80 52.0965 160 88.256 240 91.1654C320 94.0748 400 64.1497 480 49.1871C560 34.2246 640 34.2246 720 46.2777C800 58.3309 880 82.0217 960 73.2935C1040 64.1497 1120 22.1714 1200 7.20887C1280 -7.75368 1360 4.2995 1400 10.1183L1440 16.3527L1440 124L1400 124C1360 124 1280 124 1200 124C1120 124 1040 124 960 124C880 124 800 124 720 124C640 124 560 124 480 124C400 124 320 124 240 124C160 124 80 124 40 124L-1.08404e-05 124L-1.42959e-06 16.3526Z" fill="white"/>
</svg>
